<?xml version="1.0" encoding="utf-8"?>
<!-- Generator: Adobe Illustrator 25.2.3, SVG Export Plug-In . SVG Version: 6.00 Build 0)  -->
<svg version="1.1" id="Layer_1" xmlns="http://www.w3.org/2000/svg" xmlns:xlink="http://www.w3.org/1999/xlink" x="0px" y="0px"
	 width="500px" height="414.2px" viewBox="0 0 500 414.2" style="enable-background:new 0 0 500 414.2;" xml:space="preserve">
<style type="text/css">
	.st0{fill:#383691;}
	.st1{fill:none;stroke:#FFFFFF;stroke-width:1.8596;}
</style>
<g>
	<path class="st0" d="M231.6,146.5v96.3c0,14.6-3.7,26.4-11.1,35.4c-8.1,10.1-19.6,15.1-34.4,15.1c-13.1,0-23.6-2.4-31.5-7.2
		c-7.8-4.8-11.7-10.8-11.7-18c0-6,2-10.7,6.1-14.2c3.5-2.9,7.9-4.6,13.2-4.7c5.1-0.2,9.5,1.2,13.3,4.2c3.7,2.9,5.6,6.8,5.6,11.7
		c0,3.9-1.8,8.5-5.3,13.9c-0.5,0.8-0.8,1.4-0.8,2c0,3,2.5,4.5,7.7,4.5c2.5,0,3.8-2.9,3.8-8.6v-98.1c0-3.3-1.5-6.4-4.5-9.2
		c-3-2.7-6.6-4-10.9-4H165v-7.2c13.1,0,24.3-0.9,33.7-2.7C206.7,154.2,217.8,151.1,231.6,146.5"/>
	<path class="st0" d="M339.4,242.1v7.2h-89.3v-7.2c14.8,0,22.3-5.3,22.3-16v-62.8c0-3.7-1.5-6.9-4.5-9.4c-3-2.6-6.7-3.8-11.1-3.8h-8
		v-7.2c22,0,45-4,68.9-11.9v95.2C317.7,236.7,325,242.1,339.4,242.1"/>
	<path class="st0" d="M105.4,162.8c-4.6,5.5-11.3,8.3-20,8.3H65.8V131c0-4.7,1.2-8.8,3.6-12.1c2.7-4.1,6.5-6.1,11.4-6.1h8.3
		c6.2,0,11.4,3.2,15.5,9.5c4.3,6.5,6.4,13.7,6.4,21.7C111.1,151.6,109.2,157.9,105.4,162.8 M130.2,174.5c8.7-4.4,14.6-8.2,17.9-11.3
		c5.2-5.1,7.9-11.7,7.9-19.8c0-12.3-5.5-21.7-16.5-28.2s-26.1-9.7-45.5-9.7H1.4v7.3h8.1c8.3,0,12.4,6.1,12.4,18.2v99.5
		c0,9-5,13.6-15,13.6H0v7.1h100.6c40.2,0,60.6-14,61.2-42.1C162.2,194.1,151.6,182.6,130.2,174.5 M107.7,234.1
		c-4.6,6.9-10.1,10.3-16.7,10.3h-8.8c-5.1,0-9.1-1.3-11.9-3.9c-3-2.5-4.5-5.9-4.5-10.1v-52.1h19.6c10.3,0,18.1,3.3,23.4,9.9
		c4.6,5.8,6.7,13.2,6.4,22.2C114.8,219.4,112.4,227.2,107.7,234.1"/>
	<path class="st0" d="M429.7,219.6l5.3,2.9c-16.8,20.2-33.2,30.4-49.3,30.4c-13.8,0-23.2-2.2-28.3-6.8c-6.1-5.2-9-15.3-9-30.1v-72.3
		h-19.6v-7.4c12.6,0,22.1-3.5,28.6-10.6c5.8-6,10-15.7,12.7-29h23.1v39.6h36.5v7.4h-36.5v82.8c0,8.6,2.5,12.7,7.4,12.6
		C405.8,239,415.5,232.5,429.7,219.6"/>
	<path class="st0" d="M116.7,288.1C81.2,333.3,57.8,375.4,67,397.7c2.7,6.6,9.4,14.4,25.7,14.4c51.9,0,177-84.4,284.7-192.1
		C445.3,152.1,512.6,67,498,31.6c-2.7-6.6-9.4-14.4-25.6-14.4c-28.8,0-80.1,25.9-163.6,83.3l-8.9-15.4
		C383.4,27.7,434.7,1.8,463.5,1.8c16.3,0,22.9,7.8,25.7,14.4c14.6,35.4-52.7,120.5-120.6,188.4c-107.7,107.7-232.7,192-284.7,192
		c-16.3,0-22.9-7.8-25.7-14.4c-9.2-22.3,14.2-64.4,49.7-109.5L116.7,288.1z"/>
	<path class="st1" d="M116.7,288.1C81.2,333.3,57.8,375.4,67,397.7c2.7,6.6,9.4,14.4,25.7,14.4c51.9,0,177-84.4,284.7-192.1
		C445.3,152.1,512.6,67,498,31.6c-2.7-6.6-9.4-14.4-25.6-14.4c-28.8,0-80.1,25.9-163.6,83.3l-8.9-15.4
		C383.4,27.7,434.7,1.8,463.5,1.8c16.3,0,22.9,7.8,25.7,14.4c14.6,35.4-52.7,120.5-120.6,188.4c-107.7,107.7-232.7,192-284.7,192
		c-16.3,0-22.9-7.8-25.7-14.4c-9.2-22.3,14.2-64.4,49.7-109.5L116.7,288.1z"/>
	<path class="st0" d="M291.7,126.3c12.7,0,22.9-10.3,22.9-23s-10.3-22.9-22.9-22.9c-12.7,0-22.9,10.2-22.9,22.9
		C268.7,116,279,126.3,291.7,126.3"/>
	<path class="st0" d="M201.7,145.4c12.7,0,23-10.3,23-23s-10.3-22.9-23-22.9s-22.9,10.3-22.9,22.9
		C178.8,135.1,189.1,145.4,201.7,145.4"/>
</g>
</svg>
